<?xml version="1.0" encoding="iso-8859-1"?>
<!-- Generator: Adobe Illustrator 21.0.0, SVG Export Plug-In . SVG Version: 6.00 Build 0)  -->
<svg xmlns="http://www.w3.org/2000/svg" xmlns:xlink="http://www.w3.org/1999/xlink" version="1.1" id="Capa_1" x="0px" y="0px" viewBox="0 0 509.482 509.482" style="enable-background:new 0 0 509.482 509.482;" xml:space="preserve" width="512" height="512">
<g>
	<path style="fill:#4890E3;" d="M509.482,264.375V56.052c0-15.059-12.252-27.311-27.311-27.311H27.31   C12.251,28.741,0,40.993,0,56.052v208.323l248.074,51L509.482,264.375z"/>
	<path style="fill:#0075FF;" d="M482.171,28.741h-23c15.06,0,27.311,12.251,27.311,27.311v320.456   c0,15.06-12.252,27.311-27.311,27.311h23c15.06,0,27.311-12.251,27.311-27.311V56.052C509.482,40.993,497.23,28.741,482.171,28.741   z"/>
	<path style="fill:#D0CFD1;" d="M301.932,352.74H205.55c-4.142,0-7.5,3.358-7.5,7.5v96.381c0,4.142,3.358,7.5,7.5,7.5h96.381   c4.143,0,7.5-3.358,7.5-7.5V360.24C309.432,356.098,306.074,352.74,301.932,352.74z"/>
	<path style="fill:#A7A7A7;" d="M301.932,352.74h-23c4.143,0,7.5,3.358,7.5,7.5v96.381c0,4.142-3.357,7.5-7.5,7.5h23   c4.143,0,7.5-3.358,7.5-7.5V360.24C309.432,356.098,306.074,352.74,301.932,352.74z"/>
	<path style="fill:#F45A3C;" d="M116.702,102.283c-6.726,0-13.164,1.649-18.89,4.809c-5.726-3.159-12.164-4.809-18.889-4.809   c-21.018,0-38.116,16.432-38.116,36.63c0,5.677,1.316,11.122,3.912,16.182c5.075,9.894,19.453,25.098,48.078,50.839   c1.425,1.281,3.22,1.923,5.016,1.923c1.756,0,3.514-0.614,4.927-1.846c32.177-28.038,44.171-41.035,49.358-53.485   c1.805-4.332,2.72-8.913,2.72-13.614C154.818,118.715,137.72,102.283,116.702,102.283z"/>
	<g>
		<g>
			<path style="fill:#ECEDEF;" d="M497.31,76.862c-2.917-2.942-7.666-2.963-10.607-0.048l-94.199,93.35l-59.492-76.225     c-1.477-1.892-3.749-2.961-6.17-2.881c-2.399,0.083-4.613,1.308-5.957,3.298l-87.558,129.637l-49.253-42.595v19.831     l45.833,39.637c1.371,1.186,3.115,1.827,4.906,1.827c0.328,0,0.657-0.021,0.986-0.065c2.126-0.282,4.029-1.46,5.229-3.237     l86.51-128.086l58.336,74.744c1.318,1.69,3.297,2.734,5.436,2.871c2.14,0.138,4.233-0.65,5.756-2.158l100.196-99.293     C500.204,84.553,500.226,79.804,497.31,76.862z"/>
		</g>
	</g>
	<g>
		<path style="fill:#E13C2A;" d="M116.702,102.283c-3.965,0-7.825,0.588-11.504,1.706c15.416,4.697,26.62,18.575,26.62,34.923    c0,4.701-0.915,9.281-2.72,13.614c-4.811,11.547-15.49,23.574-42.683,47.625c2.047,1.868,4.167,3.79,6.382,5.782    c1.425,1.281,3.22,1.923,5.016,1.923c1.756,0,3.514-0.614,4.927-1.846c32.177-28.038,44.171-41.035,49.358-53.485    c1.805-4.332,2.72-8.913,2.72-13.614C154.818,118.715,137.72,102.283,116.702,102.283z"/>
	</g>
	<path style="fill:#D8D8D9;" d="M486.703,76.814l-0.221,0.219V98.15l10.779-10.682c2.942-2.916,2.964-7.664,0.048-10.606   C494.393,73.92,489.643,73.898,486.703,76.814z"/>
	<path style="fill:#727272;" d="M386.377,471.24c-8.294-28.553-34.799-48.495-64.454-48.495H185.559   c-29.655,0-56.16,19.942-64.454,48.495c-0.658,2.266-0.212,4.709,1.205,6.596c1.416,1.887,3.638,2.997,5.997,2.997h250.868   c2.359,0,4.581-1.11,5.997-2.997C386.589,475.949,387.035,473.506,386.377,471.24z"/>
	<path style="fill:#646464;" d="M386.377,471.24c-8.294-28.553-34.799-48.495-64.454-48.495h-23   c29.655,0,56.16,19.942,64.454,48.495c0.658,2.266,0.212,4.709-1.205,6.596c-1.416,1.887-3.638,2.997-5.997,2.997h23   c2.359,0,4.581-1.11,5.997-2.997C386.589,475.949,387.035,473.506,386.377,471.24z"/>
	<g>
		<g>
			<path style="fill:#FFF4F1;" d="M173.253,28.65v238.633c0,4.142,3.358,7.5,7.5,7.5c4.142,0,7.5-3.358,7.5-7.5V28.65H173.253z"/>
		</g>
	</g>
	<path style="fill:#ECEDEF;" d="M0,264.817v111.691c0,15.06,12.251,27.311,27.31,27.311h454.86c15.06,0,27.311-12.251,27.311-27.311   V264.817H0z"/>
	<path style="fill:#D0CFD1;" d="M486.482,264.817v111.691c0,15.06-12.252,27.311-27.311,27.311h23   c15.06,0,27.311-12.251,27.311-27.311V264.817H486.482z"/>
	<g>
		<g>
			<path style="fill:#D0CFD1;" d="M208.971,317.722H82.302c-4.142,0-7.5-3.358-7.5-7.5c0-4.142,3.358-7.5,7.5-7.5h126.669     c4.142,0,7.5,3.358,7.5,7.5C216.471,314.364,213.113,317.722,208.971,317.722z"/>
		</g>
	</g>
	<g>
		<g>
			<path style="fill:#D0CFD1;" d="M208.971,358.66H82.302c-4.142,0-7.5-3.358-7.5-7.5c0-4.142,3.358-7.5,7.5-7.5h126.669     c4.142,0,7.5,3.358,7.5,7.5C216.471,355.302,213.113,358.66,208.971,358.66z"/>
		</g>
	</g>
	<g>
		<g>
			<path style="fill:#D0CFD1;" d="M426.046,317.722H299.378c-4.143,0-7.5-3.358-7.5-7.5c0-4.142,3.357-7.5,7.5-7.5h126.668     c4.143,0,7.5,3.358,7.5,7.5C433.546,314.364,430.189,317.722,426.046,317.722z"/>
		</g>
	</g>
	<g>
		<g>
			<path style="fill:#D0CFD1;" d="M426.046,358.66H299.378c-4.143,0-7.5-3.358-7.5-7.5c0-4.142,3.357-7.5,7.5-7.5h126.668     c4.143,0,7.5,3.358,7.5,7.5C433.546,355.302,430.189,358.66,426.046,358.66z"/>
		</g>
	</g>
</g>















</svg>
