<?xml version="1.0" encoding="iso-8859-1"?>
<!-- Generator: Adobe Illustrator 21.0.0, SVG Export Plug-In . SVG Version: 6.00 Build 0)  -->
<svg xmlns="http://www.w3.org/2000/svg" xmlns:xlink="http://www.w3.org/1999/xlink" version="1.1" id="Capa_1" x="0px" y="0px" viewBox="0 0 509.482 509.482" style="enable-background:new 0 0 509.482 509.482;" xml:space="preserve" width="512" height="512">
<g>
	<g>
		<g>
			<rect x="205.55" y="360.195" style="fill:#D0CFD1;" width="96.382" height="96.382"/>
		</g>
	</g>
	<g>
		<g>
			<path style="fill:#39B7DB;" d="M482.171,396.274H27.311c-10.941,0-19.811-8.87-19.811-19.811V56.006     c0-10.941,8.87-19.811,19.811-19.811h454.861c10.941,0,19.811,8.87,19.811,19.811v320.456     C501.982,387.404,493.112,396.274,482.171,396.274z"/>
		</g>
	</g>
	<g>
		<g>
			<path style="fill:#1BACD6;" d="M482.171,36.196h-23c10.941,0,19.811,8.87,19.811,19.811v320.457     c0,10.941-8.87,19.811-19.811,19.811h23c10.941,0,19.811-8.87,19.811-19.811V56.006     C501.982,45.065,493.113,36.196,482.171,36.196z"/>
		</g>
	</g>
	<g>
		<g>
			<path style="fill:#1BACD6;" d="M7.5,270.653v105.534c0,11.094,9.452,20.087,21.112,20.087H480.87     c11.66,0,21.112-8.993,21.112-20.087V270.653H7.5z"/>
		</g>
	</g>
	<g>
		<g>
			<path style="fill:#FFF4F1;" d="M7.5,270.653v105.534c0,11.094,9.452,20.087,21.112,20.087H480.87     c11.66,0,21.112-8.993,21.112-20.087V270.653H7.5z"/>
		</g>
	</g>
	<g>
		<g>
			<path style="fill:#ECEDEF;" d="M478.982,270.653v105.534c0,11.094-9.452,20.087-21.112,20.087h23     c11.66,0,21.112-8.993,21.112-20.087V270.653H478.982z"/>
		</g>
	</g>
	<g>
		<g>
			<path style="fill:#727272;" d="M379.175,473.287c-7.208-24.814-30.195-43.088-57.252-43.088H185.559     c-27.058,0-50.044,18.274-57.252,43.088H379.175z"/>
		</g>
	</g>
	<g>
		<g>
			<path style="fill:#646464;" d="M321.923,430.199h-23c27.058,0,50.044,18.274,57.252,43.088h23     C371.967,448.473,348.98,430.199,321.923,430.199z"/>
		</g>
	</g>
	<g>
		<g>
			<path style="fill:#F85E49;" d="M116.702,109.737c-7.13,0-13.686,2.326-18.89,6.214c-5.204-3.889-11.759-6.214-18.89-6.214     c-16.909,0-30.616,13.042-30.616,29.129c0,4.576,1.109,8.906,3.086,12.759c4.972,9.693,21.128,25.941,46.42,48.686     c31.493-27.442,42.871-39.937,47.362-50.715c1.384-3.321,2.144-6.941,2.144-10.73     C147.319,122.779,133.611,109.737,116.702,109.737z"/>
		</g>
	</g>
	<g>
		<g>
			<path style="fill:#E13C2A;" d="M74.813,115.952c3.343-2.498,7.248-4.339,11.5-5.345c-2.368-0.56-4.84-0.869-7.39-0.869     c-4.081,0-7.971,0.766-11.531,2.144C70.071,112.916,72.573,114.278,74.813,115.952z"/>
		</g>
	</g>
	<g>
		<g>
			<path style="fill:#E13C2A;" d="M116.702,109.737c-4.061,0-7.924,0.776-11.469,2.144c11.192,4.334,19.085,14.78,19.085,26.985     c0,3.789-0.76,7.409-2.144,10.73c-3.884,9.323-12.934,19.938-35.686,40.394c3.541,3.277,7.317,6.717,11.325,10.321     c31.493-27.443,42.871-39.937,47.362-50.715c1.384-3.321,2.144-6.941,2.144-10.73     C147.319,122.779,133.611,109.737,116.702,109.737z"/>
		</g>
	</g>
	<g>
		<path d="M501.982,166.121c4.143,0,7.5-3.358,7.5-7.5v-76.49c0-0.002,0-0.003,0-0.005v-26.12c0-15.059-12.252-27.311-27.312-27.311    H27.311C12.251,28.696,0,40.947,0,56.006v214.646v105.534v0.276c0,15.06,12.251,27.311,27.311,27.311h1.302H198.05v18.926h-12.491    c-29.655,0-56.16,19.942-64.454,48.495c-0.658,2.266-0.212,4.709,1.205,6.596s3.638,2.997,5.998,2.997h62.445    c4.142,0,7.5-3.358,7.5-7.5s-3.358-7.5-7.5-7.5h-51.381c8.875-16.933,26.651-28.087,46.188-28.087h19.991h96.381h19.991    c19.536,0,37.313,11.155,46.188,28.087H220.752c-4.142,0-7.5,3.358-7.5,7.5s3.358,7.5,7.5,7.5h158.422    c2.359,0,4.581-1.11,5.997-2.997c1.417-1.887,1.863-4.33,1.205-6.596c-8.294-28.553-34.799-48.495-64.454-48.495h-12.491v-18.926    H480.87h1.301c15.06,0,27.312-12.251,27.312-27.311v-0.276V270.653v-82.031c0-4.142-3.357-7.5-7.5-7.5s-7.5,3.358-7.5,7.5v74.531    H188.253v-67.004l51.654,44.671c1.371,1.186,3.115,1.827,4.906,1.827c0.328,0,0.657-0.021,0.986-0.065    c2.125-0.282,4.029-1.46,5.229-3.237l86.51-128.086l58.336,74.744c1.318,1.69,3.297,2.734,5.436,2.871    c2.141,0.138,4.233-0.649,5.756-2.158l87.417-86.629v58.535C494.482,162.763,497.84,166.121,501.982,166.121z M294.432,422.699    H213.05v-18.926h81.381V422.699z M494.482,376.187c0,6.94-6.106,12.587-13.612,12.587H301.932H205.55H28.612    c-7.506,0-13.612-5.646-13.612-12.587v-98.034h479.482V376.187z M15,263.153V56.006c0-6.788,5.522-12.311,12.311-12.311h145.943    v219.457H15z M402.504,170.118l-59.492-76.225c-1.477-1.892-3.752-2.961-6.17-2.881c-2.399,0.083-4.613,1.308-5.957,3.298    l-87.558,129.637l-55.074-47.629V43.696h293.917c6.788,0,12.312,5.522,12.312,12.311v22.963L402.504,170.118z"/>
		<path d="M116.702,102.237c-6.726,0-13.164,1.649-18.89,4.809c-5.726-3.159-12.164-4.809-18.889-4.809    c-21.018,0-38.116,16.432-38.116,36.63c0,5.677,1.316,11.122,3.912,16.182c5.075,9.894,19.453,25.098,48.078,50.839    c1.425,1.281,3.22,1.923,5.016,1.923c1.756,0,3.514-0.614,4.927-1.846c32.177-28.038,44.171-41.035,49.358-53.485    c1.805-4.333,2.72-8.913,2.72-13.614C154.818,118.669,137.72,102.237,116.702,102.237z M138.252,146.712    c-3.825,9.181-14.568,20.836-40.362,43.561c-15.916-14.461-34.979-32.625-39.824-42.07c-1.499-2.921-2.259-6.063-2.259-9.335    c0-11.927,10.37-21.63,23.116-21.63c5.287,0,10.266,1.633,14.399,4.722c2.663,1.99,6.317,1.99,8.979,0    c4.135-3.089,9.114-4.722,14.4-4.722c12.746,0,23.116,9.703,23.116,21.63C139.818,141.577,139.291,144.217,138.252,146.712z"/>
		<path d="M82.302,317.676h126.668c4.142,0,7.5-3.358,7.5-7.5s-3.358-7.5-7.5-7.5H82.302c-4.142,0-7.5,3.358-7.5,7.5    S78.16,317.676,82.302,317.676z"/>
		<path d="M82.302,358.615h126.668c4.142,0,7.5-3.358,7.5-7.5s-3.358-7.5-7.5-7.5H82.302c-4.142,0-7.5,3.358-7.5,7.5    S78.16,358.615,82.302,358.615z"/>
		<path d="M299.378,317.676h126.668c4.143,0,7.5-3.358,7.5-7.5s-3.357-7.5-7.5-7.5H299.378c-4.143,0-7.5,3.358-7.5,7.5    S295.235,317.676,299.378,317.676z"/>
		<path d="M299.378,358.615h126.668c4.143,0,7.5-3.358,7.5-7.5s-3.357-7.5-7.5-7.5H299.378c-4.143,0-7.5,3.358-7.5,7.5    S295.235,358.615,299.378,358.615z"/>
	</g>
</g>















</svg>
